<svg width="40" height="43" viewBox="0 0 40 43" fill="none" xmlns="http://www.w3.org/2000/svg">
<path fill-rule="evenodd" clip-rule="evenodd" d="M2.27555 19.61H4.20223C5.79174 19.61 6.39861 20.5823 5.73391 22.0213C5.53161 22.4685 5.24259 22.8672 5.00176 23.3047C4.7537 23.7184 4.67431 24.213 4.78033 24.6845C4.88634 25.156 5.16956 25.5676 5.57022 25.8327C5.94305 26.1692 6.4309 26.3462 6.93068 26.3262C7.43045 26.3063 7.90289 26.0909 8.24821 25.7258C9.49861 24.3396 10.3046 22.6043 10.5603 20.7476C10.6441 20.0181 10.9449 19.3313 11.4229 18.7777C11.901 18.2241 12.5339 17.8295 13.2384 17.6459C13.7372 17.4861 14.2722 17.4812 14.7738 17.6321C15.2754 17.7829 15.7205 18.0825 16.0514 18.4918C16.423 18.8463 16.6693 19.3139 16.7528 19.8231C16.8363 20.3323 16.7524 20.855 16.5138 21.3115C16.1446 21.9629 15.6946 22.564 15.1747 23.1005C14.6641 23.6839 14.0186 24.1603 13.5466 24.7729C12.9204 25.5896 13.0554 26.0855 13.9031 26.6494C14.0669 26.7661 14.2402 26.8633 14.4136 26.9703C15.3695 27.4538 16.1125 28.2797 16.4973 29.2866C16.8821 30.2935 16.8811 31.409 16.4945 32.4152C15.6949 35.3321 13.5467 36.7809 10.647 37.8115C11.8801 38.3754 12.9012 38.9296 13.9802 39.3283C16.5211 40.2522 19.2355 40.587 21.9221 40.3079C24.6087 40.0288 27.1985 39.1429 29.4997 37.7159C31.8008 36.289 33.7543 34.3575 35.2152 32.0647C36.676 29.772 37.6067 27.1768 37.9384 24.4715C38.008 24.0003 38.22 23.5623 38.5453 23.2172C38.6918 23.1319 38.8579 23.0869 39.027 23.0869C39.1961 23.0869 39.3622 23.1319 39.5087 23.2172C39.6638 23.3706 39.7871 23.5537 39.8715 23.7556C39.9558 23.9576 39.9995 24.1745 40 24.3937C39.6566 28.3415 38.0969 32.0817 35.5397 35.089C29.9427 41.584 22.8428 43.9467 14.6545 41.6327C6.46606 39.3186 1.48558 33.4556 0.204342 24.8896C-0.538365 19.7093 0.760613 14.4416 3.8224 10.2171C6.88418 5.99248 11.4648 3.14768 16.5811 2.29322C16.899 2.29322 17.2169 2.20571 17.5445 2.18627C17.6754 2.16584 17.8091 2.17164 17.9378 2.20334C18.0665 2.23504 18.1878 2.29201 18.2947 2.37101C18.4016 2.45001 18.492 2.54949 18.5609 2.66376C18.6297 2.77804 18.6755 2.90488 18.6957 3.03703C18.716 3.16919 18.7102 3.30407 18.6788 3.43398C18.6474 3.5639 18.5909 3.68629 18.5126 3.79418C18.4344 3.90208 18.3359 3.99335 18.2226 4.0628C18.1094 4.13225 17.9837 4.17851 17.8528 4.19894C16.8895 4.42257 15.8009 4.54896 14.8279 4.86982C7.88222 7.17418 3.73022 11.9968 2.30448 19.2113C2.28231 19.343 2.2726 19.4765 2.27555 19.61Z" fill="#FFB21A"/>
<path fill-rule="evenodd" clip-rule="evenodd" d="M38.4105 10.859C38.2439 12.8497 37.6769 14.7851 36.744 16.547C35.1518 19.7191 33.1921 22.6892 30.9061 25.395C30.6707 25.724 30.365 25.9953 30.0115 26.1887C29.6581 26.3822 29.266 26.4928 28.8644 26.5124C28.4628 26.532 28.0619 26.4601 27.6916 26.302C27.3213 26.1439 26.991 25.9037 26.7252 25.5992C23.6714 21.9336 20.8777 18.0735 19.4905 13.4065C19.0952 12.1402 18.954 10.807 19.0753 9.48494C19.1965 8.16291 19.5777 6.87856 20.1967 5.70702C20.8156 4.53548 21.6598 3.50028 22.6799 2.66198C23.7 1.82369 24.8755 1.19913 26.1376 0.824841C32.38 -0.80863 38.4105 3.89732 38.4105 10.859ZM32.1681 10.2854C32.1738 9.59503 31.9765 8.91849 31.6013 8.3413C31.226 7.76411 30.6896 7.3122 30.0599 7.0427C29.4301 6.7732 28.7354 6.69822 28.0634 6.82725C27.3915 6.95628 26.7726 7.28351 26.2849 7.76757C25.7972 8.25163 25.4626 8.87078 25.3236 9.54672C25.1845 10.2227 25.2473 10.925 25.5037 11.565C25.7602 12.205 26.1988 12.7539 26.7644 13.1423C27.3299 13.5306 27.9968 13.741 28.6808 13.7468C29.5957 13.7598 30.4787 13.4074 31.1373 12.7664C31.7959 12.1253 32.1768 11.2475 32.197 10.3243L32.1681 10.2854Z" fill="#FFB21A"/>
</svg>
